<mxfile host="app.diagrams.net" modified="2021-06-11T11:41:02.049Z" agent="5.0 (Windows NT 10.0; Win64; x64) AppleWebKit/537.36 (KHTML, like Gecko) Chrome/91.0.4472.77 Safari/537.36 Edg/91.0.864.41" etag="J5wqmX6DiklvtZD-2KkJ" version="14.7.7" type="github">
  <diagram id="hailvvMEt1VKKTRzGtRh" name="第 1 页">
    <mxGraphModel dx="990" dy="547" grid="1" gridSize="10" guides="1" tooltips="1" connect="1" arrows="1" fold="1" page="1" pageScale="1" pageWidth="827" pageHeight="1169" math="0" shadow="0">
      <root>
        <mxCell id="0" />
        <mxCell id="1" parent="0" />
        <mxCell id="8xGyphlLj49BUks5kIn6-1" value="乘客" style="shape=umlActor;verticalLabelPosition=bottom;verticalAlign=top;html=1;sketch=1;rounded=1;shadow=1;" parent="1" vertex="1">
          <mxGeometry x="120" y="140" width="30" height="60" as="geometry" />
        </mxCell>
        <mxCell id="8xGyphlLj49BUks5kIn6-4" value="网约车司机" style="shape=umlActor;verticalLabelPosition=bottom;verticalAlign=top;html=1;sketch=1;rounded=1;shadow=1;" parent="1" vertex="1">
          <mxGeometry x="130" y="350" width="30" height="60" as="geometry" />
        </mxCell>
        <mxCell id="8xGyphlLj49BUks5kIn6-5" value="平台管理员" style="shape=umlActor;verticalLabelPosition=bottom;verticalAlign=top;html=1;sketch=1;rounded=1;shadow=1;" parent="1" vertex="1">
          <mxGeometry x="130" y="500" width="30" height="60" as="geometry" />
        </mxCell>
      </root>
    </mxGraphModel>
  </diagram>
</mxfile>
